# Blender v2.82 (sub 7) OBJ File: 'lobby.blend'
# www.blender.org
mtllib lobbyFront.mtl
o LobbyFront_Plane.005
v -3.731246 -0.995683 -4.831734
v -3.731246 -1.183917 -4.831734
v 6.049669 -1.183917 -4.831734
v 6.236525 -1.183917 -4.831734
v 6.236525 2.601562 -4.831734
v 6.236525 2.782580 -4.831734
v -3.541831 2.782580 -4.831734
v -3.731246 2.782580 -4.831734
v 5.000237 -1.183917 -4.831734
v 6.049669 2.782580 -4.831734
v 6.049668 2.601562 -4.831734
v -3.122378 2.782580 -4.831734
v -3.541831 -1.183917 -4.831734
v -3.541780 2.601583 -4.831734
v -3.731246 2.601562 -4.831734
v -3.731246 1.493469 -4.831734
v 6.236525 0.838364 -4.831734
v 6.236525 1.493469 -4.831734
v 6.049669 0.838364 -4.831734
v 6.049669 1.493469 -4.831734
v -3.541831 0.838364 -4.831734
v -3.541521 1.621394 -4.831734
v 2.833092 -1.183917 -4.831734
v 3.765760 -1.183917 -4.831734
v 5.000237 2.782580 -4.831734
v 3.765760 2.782580 -4.831734
v 3.765760 2.601562 -4.831734
v 1.648916 2.782580 -4.831734
v 1.233604 2.782580 -4.831734
v -0.028706 -1.183917 -4.831734
v 1.233604 -1.183917 -4.831734
v 1.233604 2.601562 -4.831734
v -0.028706 2.782580 -4.831734
v -1.291016 2.782580 -4.831734
v -2.129310 -1.183917 -4.831734
v -1.291015 -1.183917 -4.831734
v -1.291016 2.601562 -4.831734
v -0.028706 2.601562 -4.831734
v -2.199086 2.782580 -4.831734
v -2.496284 2.782580 -4.831734
v -2.876004 -1.183917 -4.831734
v -2.496284 -1.183917 -4.831734
v -2.500190 2.601721 -4.831734
v 2.292245 -1.183917 -4.831734
v 2.499682 -1.183917 -4.831734
v 3.040686 2.782580 -4.831734
v 2.499682 2.782580 -4.831734
v 2.499682 2.601725 -4.831734
v 5.000237 2.601562 -4.831734
v -3.731246 0.838364 -4.831734
v -3.731246 -0.272467 -4.831734
v 6.236525 -0.995683 -4.831734
v 6.236525 -0.272467 -4.831734
v 6.049669 -0.995683 -4.831734
v 6.049669 -0.272467 -4.831734
v -3.541831 -0.995683 -4.831734
v -3.541831 -0.272467 -4.831734
v -2.814069 2.782580 -4.831734
v 2.022182 2.782580 -4.831734
v 2.084807 -1.183917 -4.831734
v 1.670791 2.601645 -4.831734
v 2.666387 -1.183917 -4.831734
v 3.434812 2.782580 -4.831734
v 3.420749 2.601610 -4.831734
v -1.717108 2.782580 -4.831734
v -1.717108 2.601622 -4.831734
v -3.155190 2.601622 -4.831734
v 2.040150 2.601685 -4.831734
v 3.018029 2.601678 -4.831734
v -2.836725 2.601681 -4.831734
v -2.192055 2.601685 -4.831734
v 3.765760 -0.995683 -4.831734
v 1.233604 -0.995683 -4.831734
v -1.291015 -0.995683 -4.831734
v -0.028706 -0.995683 -4.831734
v -2.496284 -0.995683 -4.831734
v 2.499682 -0.995683 -4.831734
v 5.000237 -0.995683 -4.831734
v 2.084807 -0.995683 -4.831734
v 2.833092 -0.995683 -4.831734
v -2.129310 -0.995683 -4.831734
v -2.876004 -0.995683 -4.831734
v 2.292245 -0.995683 -4.831734
v 2.666387 -0.995683 -4.831734
v -0.972589 2.782580 -4.831734
v -0.972589 -1.183917 -4.831734
v -0.972589 -0.995683 -4.831734
v -0.972589 2.601562 -4.831734
v 0.989465 -1.183917 -4.831734
v 0.989465 2.782580 -4.831734
v 0.989465 -0.995683 -4.831734
v 0.989465 2.601562 -4.831734
v 0.480380 2.782580 -4.831734
v 0.480380 2.601562 -4.831734
v -0.500647 2.782580 -4.831734
v -0.500647 2.601562 -4.831734
vt 0.349040 0.557736
vt 0.357008 0.557736
vt 0.357008 0.540715
vt 0.349040 0.540715
vt 0.349040 0.354510
vt 0.357007 0.354510
vt 0.357007 0.348262
vt 0.349040 0.348262
vt 0.349040 0.389596
vt 0.357008 0.389596
vt 0.349040 0.681527
vt 0.357008 0.681527
vt 0.357008 0.675194
vt 0.349041 0.675193
vt 0.271438 0.681527
vt 0.300270 0.681527
vt 0.305901 0.675184
vt 0.271438 0.675194
vt 0.271437 0.354510
vt 0.300270 0.354510
vt 0.300270 0.348262
vt 0.271437 0.348262
vt 0.349043 0.442406
vt 0.357008 0.441935
vt 0.357008 0.430870
vt 0.349040 0.430870
vt 0.349040 0.523694
vt 0.357008 0.523694
vt 0.357008 0.515531
vt 0.349040 0.515531
vt 0.349043 0.614186
vt 0.357008 0.614186
vt 0.357008 0.599940
vt 0.349040 0.599940
vt 0.349040 0.573515
vt 0.357008 0.573515
vt 0.349046 0.651620
vt 0.357008 0.650862
vt 0.357008 0.640237
vt 0.349047 0.640368
vt 0.349046 0.488565
vt 0.357008 0.489166
vt 0.357008 0.473201
vt 0.349048 0.473201
vt 0.190716 0.354510
vt 0.222547 0.354510
vt 0.222547 0.348262
vt 0.190716 0.348262
vt 0.190716 0.681527
vt 0.222547 0.681527
vt 0.222547 0.675194
vt 0.190716 0.675194
vt 0.349043 0.662267
vt 0.357008 0.661170
vt 0.357008 0.501646
vt 0.349044 0.500914
vt 0.349046 0.455870
vt 0.357008 0.455113
vt 0.349046 0.630066
vt 0.357008 0.630301
vt 0.182432 0.473201
vt 0.190716 0.473201
vt 0.190716 0.467627
vt 0.182432 0.467627
vt 0.182432 0.487072
vt 0.190716 0.487072
vt 0.190716 0.480136
vt 0.182432 0.480136
vt 0.182432 0.675194
vt 0.190716 0.652933
vt 0.182432 0.652933
vt 0.182432 0.640237
vt 0.190716 0.640237
vt 0.190716 0.627968
vt 0.182432 0.627968
vt 0.190716 0.462053
vt 0.182432 0.462053
vt 0.182432 0.515531
vt 0.190716 0.515531
vt 0.182432 0.681527
vt 0.182432 0.389596
vt 0.190716 0.389596
vt 0.182432 0.354510
vt 0.182432 0.348262
vt 0.190716 0.430870
vt 0.182432 0.430870
vt 0.182432 0.523694
vt 0.190716 0.523694
vt 0.190716 0.599940
vt 0.182432 0.599940
vt 0.182432 0.589294
vt 0.190716 0.589294
vt 0.190716 0.557736
vt 0.182432 0.557736
vt 0.357008 0.589294
vt 0.349040 0.589294
vn 0.0000 0.0000 -1.0000
usemtl LobbyTexture
s off
f 38/1/1 33/2/1 93/3/1 94/4/1
f 11/5/1 10/6/1 6/7/1 5/8/1
f 49/9/1 25/10/1 10/6/1 11/5/1
f 15/11/1 8/12/1 7/13/1 14/14/1
f 50/15/1 16/16/1 22/17/1 21/18/1
f 19/19/1 20/20/1 18/21/1 17/22/1
f 64/23/1 63/24/1 26/25/1 27/26/1
f 92/27/1 90/28/1 29/29/1 32/30/1
f 66/31/1 65/32/1 34/33/1 37/34/1
f 96/35/1 95/36/1 33/2/1 38/1/1
f 70/37/1 58/38/1 40/39/1 43/40/1
f 68/41/1 59/42/1 47/43/1 48/44/1
f 27/26/1 26/25/1 25/10/1 49/9/1
f 54/45/1 55/46/1 53/47/1 52/48/1
f 1/49/1 51/50/1 57/51/1 56/52/1
f 67/53/1 12/54/1 58/38/1 70/37/1
f 55/46/1 19/19/1 17/22/1 53/47/1
f 51/50/1 50/15/1 21/18/1 57/51/1
f 32/30/1 29/29/1 28/55/1 61/56/1
f 69/57/1 46/58/1 63/24/1 64/23/1
f 71/59/1 39/60/1 65/32/1 66/31/1
f 14/14/1 7/13/1 12/54/1 67/53/1
f 43/40/1 40/39/1 39/60/1 71/59/1
f 61/56/1 28/55/1 59/42/1 68/41/1
f 48/44/1 47/43/1 46/58/1 69/57/1
f 45/61/1 77/62/1 84/63/1 62/64/1
f 60/65/1 79/66/1 83/67/1 44/68/1
f 13/69/1 56/52/1 82/70/1 41/71/1
f 42/72/1 76/73/1 81/74/1 35/75/1
f 62/64/1 84/63/1 80/76/1 23/77/1
f 31/78/1 73/79/1 79/66/1 60/65/1
f 2/80/1 1/49/1 56/52/1 13/69/1
f 9/81/1 78/82/1 54/45/1 3/83/1
f 3/83/1 54/45/1 52/48/1 4/84/1
f 23/77/1 80/76/1 72/85/1 24/86/1
f 89/87/1 91/88/1 73/79/1 31/78/1
f 35/75/1 81/74/1 74/89/1 36/90/1
f 86/91/1 87/92/1 75/93/1 30/94/1
f 41/71/1 82/70/1 76/73/1 42/72/1
f 44/68/1 83/67/1 77/62/1 45/61/1
f 24/86/1 72/85/1 78/82/1 9/81/1
f 16/16/1 15/11/1 14/14/1 22/17/1
f 20/20/1 11/5/1 5/8/1 18/21/1
f 36/90/1 74/89/1 87/92/1 86/91/1
f 37/34/1 34/33/1 85/95/1 88/96/1
f 30/94/1 75/93/1 91/88/1 89/87/1
f 94/4/1 93/3/1 90/28/1 92/27/1
f 88/96/1 85/95/1 95/36/1 96/35/1
